<svg width="64" height="44" viewBox="0 0 64 44" fill="none" xmlns="http://www.w3.org/2000/svg">
<path d="M10.2879 42.9416C10.8758 41.5304 11.4147 40.0183 11.9046 38.4055C12.2965 36.8935 12.5415 35.3814 12.6394 33.8694C12.6394 32.4582 12.3945 31.1478 11.9046 29.9381C11.4147 28.8293 10.5329 27.9221 9.25912 27.2165C6.71164 25.8053 4.55607 23.9908 2.79243 21.7732C0.930811 19.6564 -2.65536e-07 17.0355 0 13.9107C1.62748e-07 11.9954 0.342931 10.181 1.02879 8.46735C1.71465 6.75372 2.69445 5.24169 3.96819 3.93127C5.14396 2.72165 6.56467 1.76403 8.23033 1.05842C9.89599 0.352806 11.6596 -1.67435e-07 13.5213 0C17.2445 3.3487e-07 20.3799 1.36083 22.9273 4.08248C25.4748 6.80412 26.8465 10.0802 27.0425 13.9107C27.3364 17.9427 26.8465 21.6724 25.5728 25.0997C24.2011 28.6277 22.6334 31.7022 20.8698 34.323C19.0081 36.9439 17.1955 39.0607 15.4319 40.6735C13.6682 42.3872 12.4435 43.496 11.7576 44C11.5616 43.8992 11.3167 43.748 11.0228 43.5464L10.5818 43.0928C10.4839 42.992 10.3859 42.9416 10.2879 42.9416Z" fill="#C3CDD5"/>
<path d="M47.1628 42.9416C47.7507 41.5304 48.2896 40.0183 48.7795 38.4055C49.1714 36.8935 49.4163 35.3814 49.5143 33.8694C49.5143 32.4582 49.2694 31.1478 48.7795 29.9381C48.2896 28.8293 47.4077 27.9221 46.134 27.2165C43.5865 25.8053 41.431 23.9908 39.6673 21.7732C37.8057 19.6564 36.8749 17.0355 36.8749 13.9107C36.8749 11.9954 37.2178 10.181 37.9037 8.46735C38.5895 6.75372 39.5693 5.24169 40.8431 3.93127C42.0188 2.72165 43.4395 1.76403 45.1052 1.05842C46.7709 0.352806 48.5345 -1.67435e-07 50.3961 0C54.1194 3.3487e-07 57.2547 1.36083 59.8022 4.08248C62.3497 6.80412 63.7214 10.0802 63.9174 13.9107C64.2113 17.9427 63.7214 21.6724 62.4477 25.0997C61.076 28.6277 59.5083 31.7022 57.7446 34.323C55.883 36.9439 54.0704 39.0607 52.3067 40.6735C50.5431 42.3872 49.3183 43.496 48.6325 44C48.4365 43.8992 48.1916 43.748 47.8976 43.5464L47.4567 43.0928C47.3587 42.992 47.2608 42.9416 47.1628 42.9416Z" fill="#C3CDD5"/>
</svg>
